<?xml version="1.0" encoding="UTF-8"?>
<svg version="1.1" xmlns="http://www.w3.org/2000/svg" width="1024" height="1024">
<path d="M0 0 C337.92 0 675.84 0 1024 0 C1024 337.92 1024 675.84 1024 1024 C686.08 1024 348.16 1024 0 1024 C0 686.08 0 348.16 0 0 Z " fill="#0288E4" transform="translate(0,0)"/>
<path d="M0 0 C7.49089744 1.15899198 13.98082538 3.39234012 20.875 6.5 C22.37764404 7.16866089 22.37764404 7.16866089 23.91064453 7.85083008 C26.94924793 9.21548814 29.97678501 10.60161211 33 12 C33.85980469 12.39751465 34.71960938 12.7950293 35.60546875 13.20458984 C56.40636587 22.94777635 75.88884801 35.31209826 95 48 C95.81243164 48.53882813 96.62486328 49.07765625 97.46191406 49.6328125 C102.64926692 53.07663297 107.82844252 56.53250861 113 60 C111.71402448 64.27397746 110.07572281 67.82212893 107.75 71.625 C105.34965643 75.64371955 103.11526021 79.66824756 101.0625 83.875 C98.70006488 88.68645162 96.13249131 93.32950834 93.44238281 97.96459961 C90.11709321 103.72715794 86.96525564 109.57918149 83.8125 115.4375 C79.48582305 123.46988983 75.07902629 131.44785292 70.5625 139.375 C65.30388973 148.60914824 60.24220279 157.93792633 55.23071289 167.30810547 C50.90215982 175.37983433 46.43019243 183.35968676 41.89453125 191.31640625 C37.82078728 198.48737929 33.8894661 205.72764286 30 213 C25.60027687 221.22641389 21.11996946 229.39519734 16.5 237.5 C11.1924584 246.81271348 6.07771809 256.2189342 1.01513672 265.66674805 C-3.01287817 273.18043719 -7.10919012 280.65058036 -11.265625 288.09375 C-14.74189189 294.32052761 -18.18191165 300.56734068 -21.625 306.8125 C-21.96445648 307.42818848 -22.30391296 308.04387695 -22.65365601 308.67822266 C-22.99506622 309.29745605 -23.33647644 309.91668945 -23.68823242 310.5546875 C-24.38460207 311.81770877 -25.08097251 313.0807296 -25.77734375 314.34375 C-26.12552658 314.97531006 -26.47370941 315.60687012 -26.83244324 316.25756836 C-29.26156398 320.66297579 -31.6944301 325.06630021 -34.12890625 329.46875 C-40.44407887 340.89231427 -46.73625494 352.32647707 -52.9375 363.8125 C-57.08339168 371.48975401 -61.27965803 379.13210256 -65.58203125 386.72265625 C-67.44751566 390.01445399 -69.29473732 393.31608736 -71.13671875 396.62109375 C-74.74230631 403.08948909 -78.36490241 409.5481435 -82 416 C-82.48777924 416.86631042 -82.48777924 416.86631042 -82.9854126 417.75012207 C-85.29017388 421.84067494 -87.61087103 425.92184418 -89.9375 430 C-90.53965332 431.06718262 -91.14180664 432.13436523 -91.76220703 433.23388672 C-95.39883952 439.57661641 -99.34540315 445.36381166 -104 451 C-104.78153442 451.96752197 -104.78153442 451.96752197 -105.57885742 452.95458984 C-109.28189095 457.50735811 -113.54559752 461.20254177 -118 465 C-124.78176815 470.97673812 -131.37597611 477.14551745 -137.96142578 483.33642578 C-143.92804794 488.94271407 -149.94308551 494.4913407 -156 500 C-157.22203125 501.11568359 -157.22203125 501.11568359 -158.46875 502.25390625 C-165.51854416 508.65136556 -172.75286674 514.82844992 -180 521 C-183.20336783 517.89052398 -186.05934595 514.74629243 -188.75 511.1875 C-202.95744486 493.32897993 -222.44032524 485.95402026 -244 481 C-243.39518556 472.00979211 -240.97062883 463.48838956 -238.6875 454.8125 C-238.29178654 453.28594488 -237.89660081 451.75925287 -237.50195312 450.23242188 C-234.19397581 437.48778586 -230.61990234 424.82673863 -226.7578125 412.23828125 C-225.6441724 408.51900885 -224.75682363 404.84332244 -224.0546875 401.0234375 C-223.12183462 396.21487959 -221.66763717 391.87464475 -219.75 387.375 C-219.4092041 386.57143066 -219.0684082 385.76786133 -218.71728516 384.93994141 C-214.27655432 374.87211271 -208.49733873 365.56640708 -202.85546875 356.14111328 C-199.76937484 350.91668114 -196.82317003 345.61560824 -193.875 340.3125 C-184.53204898 323.55200777 -174.96150467 306.92675119 -165.36230469 290.31201172 C-161.62687125 283.84002171 -157.92301124 277.35254618 -154.27392578 270.83154297 C-149.74790421 262.74800514 -145.13318737 254.71499581 -140.53076172 246.67480469 C-138.10166587 242.4302793 -135.67590175 238.18385148 -133.25 233.9375 C-129.88337324 228.04450554 -126.51525256 222.15237235 -123.14453125 216.26171875 C-121.78365263 213.88292773 -120.42299762 211.50400894 -119.0625 209.125 C-118.72127106 208.52833527 -118.38004211 207.93167053 -118.0284729 207.31692505 C-113.47343442 199.35014889 -108.94305125 191.36989152 -104.4375 183.375 C-99.75925567 175.07441831 -95.01944981 166.81099617 -90.25 158.5625 C-85.17544763 149.78622411 -80.14981296 140.98681253 -75.20019531 132.13964844 C-72.17274062 126.74245296 -69.11996645 121.35947622 -66.07324219 115.97314453 C-63.31336763 111.09353964 -60.55551565 106.21283648 -57.8046875 101.328125 C-51.53415293 90.20002533 -45.19728295 79.11270009 -38.80395508 68.0546875 C-32.11893447 56.48844557 -25.49579492 44.88725627 -18.875 33.28417969 C-17.08523671 30.14929743 -15.29317198 27.01574597 -13.5 23.8828125 C-12.68825317 22.46415894 -12.68825317 22.46415894 -11.86010742 21.0168457 C-10.87108441 19.28859079 -9.88169967 17.5605428 -8.8918457 15.83276367 C-5.88609424 10.57803377 -2.92785923 5.29851887 0 0 Z " fill="#FDFDFD" transform="translate(580,235)"/>
<path d="M0 0 C8.33054567 5.2221167 16.50901724 10.65290685 24.67376709 16.12878418 C34.84005102 22.94382968 45.01747706 29.72754667 55.375 36.25 C64.15564258 41.78450518 72.80389339 47.49831059 81.42724609 53.27441406 C92.58015419 60.7407359 103.78920721 68.12096831 115 75.5 C132.25219929 86.85840559 149.46499286 98.27222796 166.63085938 109.76074219 C169.14906423 111.4456748 171.66797958 113.12953525 174.1875 114.8125 C175.40034668 115.62267578 175.40034668 115.62267578 176.63769531 116.44921875 C182.09660945 120.08710102 187.57516709 123.69426545 193.0625 127.2890625 C193.77175125 127.75380478 194.4810025 128.21854706 195.21174622 128.69737244 C198.74327095 131.010831 202.27620329 133.32209863 205.8112793 135.63012695 C233.86038514 153.9648097 233.86038514 153.9648097 237.75 168.875 C237.8325 169.90625 237.915 170.9375 238 172 C238.08636719 172.78890625 238.17273438 173.5778125 238.26171875 174.390625 C238.88087396 184.02192821 234.87398137 191.58609831 229.125 199.125 C224.068667 204.50360477 217.4130664 208.00082609 211.11865234 211.73535156 C207.84050903 213.69211376 204.6084443 215.7205241 201.375 217.75 C200.72901855 218.15347656 200.08303711 218.55695313 199.41748047 218.97265625 C192.70384916 223.16968472 186.02873766 227.42705845 179.35180664 231.68212891 C171.02444911 236.98834844 162.67847742 242.26461736 154.32666016 247.53222656 C149.58675696 250.52239424 144.84899035 253.51594703 140.11108398 256.50927734 C136.22912874 258.96158244 132.34624614 261.4123858 128.4609375 263.859375 C120.51195455 268.86863777 112.58195238 273.9052626 104.67626953 278.98266602 C95.61672103 284.80041769 86.53186815 290.55491743 77.32177734 296.13134766 C71.63139579 299.58663986 66.03632401 303.17455639 60.45849609 306.80810547 C52.81699928 311.7832676 45.10192352 316.63963971 37.38525391 321.49707031 C35.06110836 322.9614961 32.73911211 324.42925869 30.41796875 325.8984375 C22.75617406 330.74704447 15.0830677 335.57625627 7.38793945 340.37182617 C-2.22999137 346.36734856 -11.82143132 352.4024622 -21.375 358.5 C-22.39029785 359.14614258 -23.4055957 359.79228516 -24.45166016 360.45800781 C-30.09274482 364.0679281 -35.60950915 367.79205379 -41.02587891 371.73242188 C-43 373 -43 373 -45 373 C-45.44213153 363.03913915 -45.77871445 353.08064148 -45.98443127 343.11193466 C-46.08323118 338.48123301 -46.21688151 333.85728188 -46.43334961 329.23046875 C-47.79739771 299.31721152 -47.79739771 299.31721152 -43.16241455 292.1640625 C-38.79789295 287.95227873 -33.92175328 285.64214785 -28.20620728 283.76708984 C-25.32706585 282.76602337 -22.98308266 281.24816624 -20.5 279.5 C-15.50936162 276.31846803 -10.50489667 273.15903012 -5.5 270 C3.45830341 264.34454487 12.40499923 258.67275403 21.3125 252.9375 C33.92899997 244.81759975 46.57233175 236.73718321 59.3125 228.8125 C65.39903324 225.02585472 71.42486012 221.15221189 77.43481445 217.24536133 C82.76290701 213.78679619 88.12392541 210.38342145 93.5 207 C100.2185423 202.77109052 106.90206796 198.4931893 113.55517578 194.16210938 C117.40981292 191.65818058 121.2827025 189.18759653 125.1796875 186.75 C126.4780957 185.93692383 126.4780957 185.93692383 127.80273438 185.10742188 C129.48153182 184.05833281 131.16243306 183.01260072 132.84570312 181.97070312 C133.60560547 181.49568359 134.36550781 181.02066406 135.1484375 180.53125 C135.82052246 180.11423828 136.49260742 179.69722656 137.18505859 179.26757812 C139.00772734 177.99460312 140.48133974 176.61817697 142 175 C135.28564518 170.2359325 128.4771679 165.65476926 121.5625 161.1875 C113.26729402 155.80714008 105.02168809 150.35882334 96.80737305 144.85629272 C88.33268519 139.179574 79.84000745 133.55365277 71.15625 128.19970703 C66.42183251 125.28023461 61.79273994 122.22771579 57.1796875 119.12109375 C53.3741732 116.58252585 49.53290804 114.10254085 45.6875 111.625 C40.26171255 108.12688212 34.86276105 104.59399325 29.5 101 C24.42438666 97.60048534 19.32096676 94.24899622 14.1875 90.9375 C12.00509631 89.52719148 9.82285495 88.11663202 7.640625 86.70605469 C5.68543692 85.44284701 3.72960945 84.18062886 1.7734375 82.91894531 C-1.16924239 81.02017446 -4.10815991 79.11567524 -7.04525757 77.20828247 C-8.21501511 76.44987623 -9.3859199 75.69323631 -10.55801392 74.93844604 C-12.21484406 73.87114503 -13.86726434 72.79700799 -15.51953125 71.72265625 C-16.95969604 70.79078491 -16.95969604 70.79078491 -18.42895508 69.84008789 C-20.89556234 68.07474567 -22.92881494 66.20847086 -25 64 C-24.77860352 63.48727539 -24.55720703 62.97455078 -24.32910156 62.44628906 C-18.66926193 49.37532895 -18.66926193 49.37532895 -13.984375 35.93359375 C-13.12322273 33.36722329 -12.16785313 30.89062074 -11.15234375 28.3828125 C-8.48827249 21.7974885 -6.12219895 15.10988634 -3.73632812 8.41992188 C-3.22682617 7.00356445 -3.22682617 7.00356445 -2.70703125 5.55859375 C-2.25034058 4.27940063 -2.25034058 4.27940063 -1.78442383 2.97436523 C-1 1 -1 1 0 0 Z " fill="#FCFDFD" transform="translate(740,307)"/>
<path d="M0 0 C0.34870967 9.73529937 0.61462658 19.46909796 0.77718258 29.20938683 C0.85523992 33.7334799 0.96091621 38.25328076 1.1315918 42.77490234 C1.29551926 47.14548832 1.38443501 51.51197108 1.42315865 55.88539505 C1.45071816 57.5468575 1.50455323 59.20811311 1.58595085 60.8678093 C2.18087907 73.51012144 2.18087907 73.51012144 -1.46405411 77.67148972 C-5.05753118 80.72430003 -9.01502614 82.98150964 -13.21703625 85.0890255 C-15.57172261 86.29211178 -17.75430363 87.71465767 -19.953125 89.1796875 C-21.38418644 90.08008326 -22.8164728 90.97853521 -24.25 91.875 C-25.87372192 92.89579516 -27.49741913 93.91662962 -29.12109375 94.9375 C-29.93046387 95.44539063 -30.73983398 95.95328125 -31.57373047 96.4765625 C-35.49083547 98.93608506 -39.40186313 101.40521028 -43.3125 103.875 C-44.47930298 104.61169922 -44.47930298 104.61169922 -45.66967773 105.36328125 C-55.46256825 111.5501579 -65.23037147 117.77648533 -75 124 C-87.87562245 132.20211587 -100.76090491 140.38817133 -113.67333984 148.53222656 C-117.61660243 151.01983356 -121.55822684 153.51003385 -125.5 156 C-130.21405863 158.97780871 -134.92840236 161.95515835 -139.64453125 164.9296875 C-142.76200432 166.89593792 -145.87767002 168.86500926 -148.9921875 170.8359375 C-152.63736359 173.14224907 -156.29017598 175.43607303 -159.9453125 177.7265625 C-161.94280879 178.98421547 -163.94020639 180.24202518 -165.9375 181.5 C-166.87956299 182.08765137 -167.82162598 182.67530273 -168.79223633 183.28076172 C-170.115177 184.11631592 -170.115177 184.11631592 -171.46484375 184.96875 C-172.244646 185.45794922 -173.02444824 185.94714844 -173.82788086 186.45117188 C-176.14536943 188.10365558 -178.04457945 189.9375055 -180 192 C-179.2869873 192.26103516 -178.57397461 192.52207031 -177.83935547 192.79101562 C-174.85092799 194.06347417 -172.30016048 195.58562336 -169.5703125 197.34375 C-168.53543701 198.00785889 -167.50056152 198.67196777 -166.43432617 199.35620117 C-165.34224854 200.06365479 -164.2501709 200.7711084 -163.125 201.5 C-161.98623399 202.23371269 -160.84731698 202.96719106 -159.70825195 203.70043945 C-153.25151323 207.863412 -146.82671106 212.07167032 -140.44921875 216.35498047 C-130.10170402 223.30218689 -119.62599641 230.05993444 -109.11328125 236.75390625 C-96.90511487 244.52787793 -84.79374807 252.42349063 -72.76904297 260.47680664 C-65.89894265 265.07661769 -59.00156309 269.62985017 -52.0625 274.125 C-51.25731934 274.64852051 -50.45213867 275.17204102 -49.62255859 275.71142578 C-46.14151352 277.97341077 -42.65421017 280.22245825 -39.140625 282.43359375 C-38.04234375 283.13613281 -36.9440625 283.83867188 -35.8125 284.5625 C-34.89082031 285.14128906 -33.96914063 285.72007812 -33.01953125 286.31640625 C-30.64343821 288.29724977 -30.37296558 288.98341498 -30 292 C-30.57324219 294.60620117 -30.57324219 294.60620117 -31.546875 297.54296875 C-31.8975 298.61740234 -32.248125 299.69183594 -32.609375 300.79882812 C-32.98578125 301.91708984 -33.3621875 303.03535156 -33.75 304.1875 C-34.29140625 305.83588867 -34.29140625 305.83588867 -34.84375 307.51757812 C-36.15750964 311.50883704 -37.49315065 315.49253576 -38.83227539 319.4753418 C-40.34335312 323.98102033 -41.78951274 328.50198096 -43.19482422 333.04174805 C-45.50593099 340.49700469 -47.92173989 347.81907684 -51 355 C-59.7459532 350.5510775 -67.79968014 345.26489561 -75.9069519 339.77224731 C-86.32720347 332.71560391 -96.76842002 325.74945983 -107.5703125 319.28637695 C-111.97178977 316.64971445 -116.18758269 313.84789626 -120.35546875 310.8515625 C-125.99243468 306.90485371 -131.83341544 303.25611987 -137.62011719 299.53417969 C-141.75491811 296.86870072 -145.87685311 294.18345631 -150 291.5 C-155.37160174 288.00570263 -160.74571796 284.51548547 -166.12890625 281.0390625 C-174.67803172 275.51810085 -183.1974662 269.95227225 -191.71261597 264.37908936 C-198.3605792 260.02833992 -205.01292961 255.68485607 -211.6875 251.375 C-221.21134529 245.22317757 -230.71446714 239.04005975 -240.19921875 232.828125 C-242.85568239 231.09419894 -245.52053216 229.3739581 -248.1875 227.65625 C-259.81274165 220.12199905 -269.17733404 213.91007489 -273.57421875 200.2109375 C-275.21636308 191.68383943 -275.33827346 181.85561258 -270.65063477 174.33520508 C-265.5022012 167.05155369 -258.67293129 162.09991149 -251.1875 157.4375 C-250.29877197 156.87232666 -249.41004395 156.30715332 -248.49438477 155.72485352 C-246.00151058 154.14138422 -243.50133345 152.57005453 -241 151 C-239.14511296 149.81362555 -237.29077396 148.62639273 -235.4375 147.4375 C-233.62611064 146.28991171 -231.81345595 145.1443198 -230 144 C-227.86437612 142.65208864 -225.72880118 141.30409979 -223.59326172 139.95605469 C-221.97261444 138.9330766 -220.3518437 137.91029406 -218.73095703 136.88769531 C-213.49140251 133.58010596 -208.26164255 130.25756139 -203.03759766 126.92553711 C-193.31129754 120.7222106 -183.55000181 114.57798456 -173.76220703 108.47216797 C-165.2469009 103.15927015 -156.75739233 97.80664006 -148.27685547 92.43847656 C-145.99048334 90.99398754 -143.70081671 89.55486491 -141.41015625 88.1171875 C-132.69557261 82.64170131 -124.04389122 77.0817113 -115.4375 71.4375 C-107.88473934 66.48771758 -100.27878132 61.6577844 -92.55297852 56.9831543 C-86.49360228 53.31558367 -80.50136673 49.54941798 -74.51977539 45.7565918 C-68.09345366 41.68401031 -61.64337049 37.6505468 -55.1875 33.625 C-47.33124713 28.72306405 -39.49645674 23.78943977 -31.6875 18.8125 C-30.34836548 17.95978516 -30.34836548 17.95978516 -28.98217773 17.08984375 C-24.47489048 14.2186141 -19.971813 11.34098356 -15.47265625 8.45703125 C-13.73186333 7.3462092 -11.99098178 6.23552603 -10.25 5.125 C-9.44522217 4.60655518 -8.64044434 4.08811035 -7.8112793 3.55395508 C-6.70586792 2.8504895 -6.70586792 2.8504895 -5.578125 2.1328125 C-4.93262695 1.71918457 -4.28712891 1.30555664 -3.62207031 0.87939453 C-2 0 -2 0 0 0 Z " fill="#FCFDFD" transform="translate(347,302)"/>
<path d="M0 0 C12.46842282 9.73699606 22.47742026 23.82687936 24.95410156 39.61572266 C26.60789296 56.27767101 24.40678124 69.84053595 16.44921875 84.56640625 C15.23343157 86.82580266 14.04770629 89.09893198 12.86816406 91.37744141 C5.42202094 105.72560918 -2.23145639 120.00898562 -10.73339844 133.76416016 C-14.98410712 132.30542987 -18.29655137 130.05574478 -21.85839844 127.38916016 C-37.04984228 116.3115992 -53.30901784 106.8765172 -69.73339844 97.76416016 C-70.46768066 97.35568848 -71.20196289 96.9472168 -71.95849609 96.52636719 C-88.33210368 87.47629671 -105.49566611 80.00047782 -122.73339844 72.76416016 C-117.68658292 59.37261006 -109.46194003 46.822098 -102.29785156 34.47802734 C-100.75125606 31.7951379 -99.23349006 29.09739869 -97.71777344 26.39697266 C-87.80487789 8.98255781 -76.32543228 -4.30655228 -56.55761719 -10.50927734 C-37.06918005 -15.52290018 -16.36980244 -11.67097746 0 0 Z " fill="#FCFDFD" transform="translate(713.7333984375,145.23583984375)"/>
<path d="M0 0 C19.84194085 0.99209704 36.68651983 10.99593918 50.234375 24.984375 C57.12283915 32.84819691 57.12283915 32.84819691 56.88671875 36.984375 C55.68078206 39.72562316 54.02872336 41.05940979 51.75 43 C47.64669114 46.56555328 43.60738348 50.17609409 39.625 53.875 C38.51975234 54.89737448 37.41428252 55.91950884 36.30859375 56.94140625 C35.76058105 57.44816895 35.21256836 57.95493164 34.64794922 58.47705078 C28.22357032 64.41412864 21.80269787 70.34637487 15.1796875 76.0625 C13.42667016 77.62073763 11.7124739 79.202365 10.0078125 80.8125 C-8.61520232 98.39055831 -8.61520232 98.39055831 -16.0625 98.6875 C-17.361875 98.460625 -18.66125 98.23375 -20 98 C-23.53725938 92.69411093 -22.69739121 86.09321365 -21.65063477 79.94946289 C-20.55511168 74.66492349 -19.15110682 69.46005787 -17.75 64.25 C-17.14856451 61.95529228 -16.55161238 59.65944683 -15.95471191 57.36355591 C-15.55900885 55.8444967 -15.16115323 54.32599653 -14.7611084 52.80807495 C-13.18203704 46.79634784 -11.73420966 40.75920182 -10.35638428 34.69830322 C-9.15729001 29.47336668 -7.64582511 24.39160805 -6.01171875 19.2890625 C-4.44956667 14.21056036 -3.15015457 9.0683326 -1.83203125 3.921875 C-1 1 -1 1 0 0 Z " fill="#FBFDFD" transform="translate(333,727)"/>
<path d="M0 0 C0 3 0 3 -2.5 5.6875 C-3.325 6.450625 -4.15 7.21375 -5 8 C-5.99 7.67 -6.98 7.34 -8 7 C-5.36 4.69 -2.72 2.38 0 0 Z " fill="#1591E8" transform="translate(427,731)"/>
</svg>
